<svg xmlns="http://www.w3.org/2000/svg" xmlns:xlink="http://www.w3.org/1999/xlink" width="50" height="50" viewBox="0 0 50 50">
  <defs>
    <clipPath id="clip-flight-icon">
      <rect width="50" height="50"/>
    </clipPath>
  </defs>
  <g id="flight-icon" clip-path="url(#clip-flight-icon)">
    <rect width="50" height="50" fill="rgba(255,255,255,0)"/>
    <g id="take-off_1_" data-name="take-off (1)" transform="translate(0 9.79)">
      <path id="Path_1028" data-name="Path 1028" d="M3.491,27.313A3.554,3.554,0,0,0,7.3,30.239c3.25-.25,6.339-.676,6.339-.676l28.5-16.827s-.673-6.267-3.925-5.265-10.416,5.265-10.416,5.265L14.554,4.058S11.639,3.632,11.3,5.221s6.752,11.252,6.752,11.252l-2.751,4Z" transform="translate(1.565 1.796)" fill="#41c0f0"/>
      <path id="Path_530" data-name="Path 530" d="M1.685,399.37a1.687,1.687,0,0,1,1.685,1.685,1.685,1.685,0,0,0,3.37,0,1.687,1.687,0,0,1,1.685-1.685,1.685,1.685,0,1,0,0-3.37,5.034,5.034,0,0,0-3.37,1.291A5.034,5.034,0,0,0,1.685,396a1.685,1.685,0,1,0,0,3.37Z" transform="translate(0.001 -396)" fill="#41c0f0"/>
      <path id="Path_531" data-name="Path 531" d="M1.685,399.37a1.687,1.687,0,0,1,1.685,1.685,1.685,1.685,0,0,0,3.37,0,1.687,1.687,0,0,1,1.685-1.685,1.685,1.685,0,1,0,0-3.37,5.034,5.034,0,0,0-3.37,1.291A5.034,5.034,0,0,0,1.685,396a1.685,1.685,0,1,0,0,3.37Z" transform="translate(39.89 -372.07)" fill="#41c0f0"/>
      <g id="Layer_2" transform="translate(0 3.963)">
        <path id="Path_533" data-name="Path 533" d="M95.418,59.552a1.753,1.753,0,0,1-.889-3.264l7.249-4.254c.037-.022.045-.027.08-.044.257-.142.826-.577.909-.991.069-.343-.251-.8-.447-1.046-2.189-2.709-3.727-4.513-3.925-4.745a10.079,10.079,0,0,1-2.089-3.087,4.551,4.551,0,0,1,1.43-4.929,5.176,5.176,0,0,1,5.879-.153,125.593,125.593,0,0,1,11.113,7.771l1.322-.659a1.752,1.752,0,1,1,1.563,3.137l-2.3,1.148a1.753,1.753,0,0,1-1.859-.186,139.295,139.295,0,0,0-11.561-8.161,1.792,1.792,0,0,0-1.957-.166,1.043,1.043,0,0,0-.278,1.16,9.013,9.013,0,0,0,1.333,1.765l.047.052c.016.019,1.642,1.915,4.013,4.85a4.655,4.655,0,0,1,1.149,3.981,5.4,5.4,0,0,1-2.675,3.344L96.3,59.311A1.742,1.742,0,0,1,95.418,59.552Z" transform="translate(-85.276 -36.204)" fill="#58489d"/>
        <path id="Path_534" data-name="Path 534" d="M385.671,92.833a1.753,1.753,0,0,1-.615-3.394c.941-.36,2.337-1.253,2.5-1.989a.8.8,0,0,0-.193-.756,3.721,3.721,0,0,0-2.7-1,2.649,2.649,0,0,0-1.815.537,1.753,1.753,0,0,1-2.911-1.95c.207-.331,1.4-1.987,4.614-2.09a7.053,7.053,0,0,1,5.506,2.261,4.311,4.311,0,0,1,.927,3.742c-.635,2.933-4.28,4.375-4.693,4.53A1.753,1.753,0,0,1,385.671,92.833Z" transform="translate(-345.574 -78.052)" fill="#58489d"/>
        <path id="Path_535" data-name="Path 535" d="M10.441,202.285a6.558,6.558,0,0,1-3.885-1.055c-1.5-1.109-5.146-5.821-5.861-6.754a1.752,1.752,0,0,1,2.781-2.132,54.218,54.218,0,0,0,5.163,6.068c.71.525,3.483.684,6.481-.866,3.393-1.755,20-11.538,20.166-11.636a1.752,1.752,0,0,1,1.779,3.02c-.687.4-16.857,9.931-20.335,11.73A14.075,14.075,0,0,1,10.441,202.285Z" transform="translate(-0.333 -172.234)" fill="#58489d"/>
      </g>
    </g>
  </g>
</svg>
