<?xml version="1.0" encoding="utf-8"?>
<!-- Generator: Adobe Illustrator 16.0.0, SVG Export Plug-In . SVG Version: 6.00 Build 0)  -->
<!DOCTYPE svg PUBLIC "-//W3C//DTD SVG 1.1//EN" "http://www.w3.org/Graphics/SVG/1.1/DTD/svg11.dtd">
<svg version="1.1" id="Layer_1" xmlns="http://www.w3.org/2000/svg" xmlns:xlink="http://www.w3.org/1999/xlink" x="0px" y="0px"
	 width="50px" height="50px" viewBox="0 0 50 50" enable-background="new 0 0 50 50" xml:space="preserve">
<g>
	<g id="tour-icon">
		<g id="hot-air-balloon" transform="translate(5.498 5.498)">
			<path id="Path_1032" fill="#41C0F0" d="M18.784,1.523c1.954-0.05,9.35,2.358,10.706,4.7c1.355,2.342,2.475,8.062,1.875,10.174
				c-0.598,2.113-5.415,19.138-6.025,19.817c-1.008,1.009-2.431,1.485-3.843,1.29c-1.967-0.16-5.945,0.307-6.7,0
				s-8.141-20.563-7.69-23.662c0.451-3.099,2.486-9.417,6.025-10.627S16.829,1.573,18.784,1.523z"/>
			<g id="Group_347">
				<path id="Path_516" fill="#58489D" d="M19.502,0C11.923,0.008,5.786,6.158,5.794,13.736c0.001,1.351,0.202,2.694,0.596,3.986
					v0.014l5.693,18.034l0,0c0.582,1.926,2.36,3.239,4.372,3.23h6.094c2.01,0.008,3.786-1.304,4.369-3.227l5.7-18.042v-0.013
					c2.207-7.249-1.88-14.915-9.129-17.123C22.197,0.201,20.854,0.001,19.502,0z M29.702,16.825l-5.695,18.04v0.014
					c-0.199,0.639-0.789,1.074-1.458,1.077h-6.094c-0.668-0.003-1.258-0.438-1.457-1.076l-2.354-7.456h10.467
					c0.841-0.021,1.506-0.721,1.484-1.563c-0.021-0.811-0.674-1.464-1.484-1.484H11.682l-2.384-7.552
					C7.585,11.19,10.765,5.232,16.4,3.519c5.635-1.713,11.593,1.467,13.306,7.103c0.614,2.022,0.614,4.181,0,6.204H29.702z"/>
				<path id="Path_517" fill="#41C0F0" d="M31.386,35.956c0.842,0.001,1.523,0.683,1.524,1.524
					c-0.021,0.841,0.643,1.541,1.484,1.563s1.541-0.644,1.563-1.484c0-0.026,0-0.053,0-0.078c0-0.842,0.683-1.523,1.523-1.524
					c0.842-0.021,1.506-0.722,1.484-1.563c-0.021-0.812-0.673-1.464-1.484-1.484c-1.125-0.001-2.21,0.415-3.047,1.168
					c-0.836-0.753-1.922-1.169-3.048-1.168c-0.841-0.022-1.541,0.643-1.563,1.484c-0.021,0.841,0.644,1.541,1.484,1.563
					C31.334,35.957,31.359,35.957,31.386,35.956z"/>
				<path id="Path_518" fill="#41C0F0" d="M1.524,33.214c0.841,0.001,1.523,0.683,1.524,1.524c-0.021,0.841,0.643,1.541,1.484,1.563
					c0.842,0.021,1.541-0.644,1.563-1.484c0.001-0.026,0.001-0.053,0-0.078c0.001-0.842,0.683-1.523,1.524-1.524
					c0.841-0.021,1.506-0.722,1.484-1.563c-0.021-0.812-0.673-1.464-1.484-1.484c-1.125-0.001-2.211,0.415-3.047,1.168
					c-0.836-0.753-1.922-1.169-3.048-1.168c-0.841,0.021-1.506,0.722-1.484,1.563C0.061,32.541,0.713,33.193,1.524,33.214z"/>
				<path id="Path_519" fill="#58489D" d="M23.557,19.568c0.833,0.119,1.604-0.459,1.725-1.292c0.419-3.027,0.419-6.099,0-9.126
					c-0.143-0.83-0.932-1.386-1.761-1.243c-0.796,0.137-1.347,0.873-1.255,1.675c0.378,2.741,0.378,5.521,0,8.262
					C22.147,18.677,22.725,19.448,23.557,19.568z"/>
				<path id="Path_520" fill="#58489D" d="M15.446,19.567c0.833-0.12,1.411-0.891,1.292-1.724c-0.378-2.741-0.378-5.521,0-8.262
					c0.096-0.836-0.504-1.592-1.34-1.688c-0.803-0.092-1.539,0.459-1.675,1.255c-0.42,3.027-0.42,6.099,0,9.126
					C13.841,19.107,14.612,19.686,15.446,19.567L15.446,19.567z"/>
			</g>
			<path id="Path_521" fill="#FFFFFF" d="M16.231,31.386c0,0.842,0.682,1.524,1.524,1.524h3.5c0.841,0.021,1.541-0.643,1.563-1.484
				c0.022-0.842-0.644-1.541-1.484-1.563c-0.026-0.001-0.052-0.001-0.078,0h-3.5C16.914,29.863,16.231,30.545,16.231,31.386z"/>
		</g>
	</g>
</g>
</svg>
